<svg width="500" id="leaf" xmlns="http://www.w3.org/2000/svg" viewBox="0 0 775.12 496.66">

  <style>
    /* Stick the SVG to the right and make it larger */
    #leaf {
      position: fixed;
      right: 0;
      top: 20%; /* Adjust vertical position as needed */
      transform-origin: center;
      animation: sway 5s ease-in-out infinite; /* Slow sway animation */
      width: 500px; /* Increase the size */
    }

    /* Leaf color */
    .leafColour {
      fill: #7cb518;
    }

    /* Sway animation, subtle rotation back and forth */
    @keyframes sway {
      0% {
        transform: rotate(0deg);
      }
      50% {
        transform: rotate(3deg); /* Sways gently to the right */
      }
      100% {
        transform: rotate(0deg); /* Returns to original position */
      }
    }
  </style>

  <!-- <path class="leafColour" d="M702.9,114.96c.05-3.29.1-6.59.16-9.88,1.74-5.16,3.26-10.4,5.26-15.46,3.64-9.18,7.57-18.25,11.56-27.78-4.14-1.64-7.13-2.82-10.34-4.09-.95,2.63-1.52,4.7-2.43,6.62-.99,2.09-2.01,4.27-3.5,6-15.83,18.25-36.27,27.06-59.82,29.39-.57-4.76-4.61-8.44-9.52-8.44-5.3,0-9.6,4.3-9.6,9.6s4.3,9.6,9.6,9.6c4.07,0,7.54-2.54,8.94-6.11.86-.09,1.73-.19,2.59-.22,2.52-.08,5.04-.08,7.56-.11,3.18-.57,6.37-1.14,9.55-1.71,13.84-6.46,27.67-12.93,41.15-19.23-.27.7-.69,2.47-1.57,3.98-6.69,11.43-13.1,23.05-20.31,34.14-8.72,13.42-16.1,27.41-21.12,42.61-6.17,19.58-10.96,39.44-11.97,60.06-.05.97-.47,1.92-.71,2.87-.03,1.01-.07,2.01-.1,3.02,0,9.97.02,19.93.03,29.9.03.67.06,1.35.09,2.02.26,2.32.51,4.63.77,6.95,2.78,28.03,9.33,55.03,20.66,80.74.51-.11,1.02-.22,1.53-.33-.11-2.53-.23-5.05-.34-7.58-.52-6.82-1.09-13.63-1.48-20.46-.04-.78,1.65-8.07,2.02-10.86,4.7-35.8,9.68-71.57,14.08-107.41,2.5-20.35,2.27-40.67-3.39-60.68-.95-3.37-1.82-7.94-.33-10.62,4.81-8.66,10.73-16.71,15.76-24.29,2.21,10.04,4.39,19.92,6.57,29.81.75-.03,1.49-.07,2.24-.1-1.19-7.31-2.39-14.63-3.58-21.94Z"/>
  <path class="leafColour" d="M773.19,290.67c-5.02-22.97-9.2-46.17-15.3-68.86-6.59-24.51-17.25-47.47-33.48-67.3-5.27-6.44-11.91-11.77-17.93-17.6-.75.03-1.49.07-2.24.1-3.92,16.55-3.82,33.2-.38,49.74,10.27,49.44,37.67,89.22,71.27,125.44-.65-7.17-1.29-14.35-1.94-21.52Z"/>
  <path class="leafColour" d="M657.31,164.62c-3.04,1.76-5.42,3.14-7.79,4.52-37.37,31.98-59.2,73.2-71.68,120.1,1.64-.48,2.83-1.3,3.92-2.23,5.92-5.08,11.9-10.09,17.72-15.29,15.84-14.14,30.78-29.15,43.79-45.99,4.53-5.97,3.05-13.31,4.55-19.97,2.87-12.73,5.94-25.41,8.92-38.11.18-.75.29-1.5.58-3.02Z"/>
  <path class="leafColour" d="M641.08,120.55c-1.74-1.76-4.15-2.84-6.82-2.84-5.3,0-9.6,4.3-9.6,9.6s4.3,9.6,9.6,9.6c1.87,0,3.61-.54,5.09-1.47.03.22.07.44.1.66.1-.32.24-.65.38-.98,2.44-1.74,4.03-4.59,4.03-7.81,0-1.49-.35-2.9-.96-4.16,1.22-1.11,2.9-2.03,4.75-3.07,0,3.68,0,6.78,0,9.82-1.42,1.67-2.28,3.84-2.28,6.21,0,5.3,4.3,9.6,9.6,9.6s9.6-4.3,9.6-9.6-4.3-9.6-9.6-9.6c-1.36,0-2.66.29-3.84.8-.23-2.99-.57-5.99.01-8.81,1.44-6.96,6.4-11.79,11.76-16.12-3.19.57-6.37,1.14-9.55,1.71-2.42,6.9-6.65,12.27-12.28,16.47Z"/> -->
</svg>